<svg id="Camada_1" data-name="Camada 1" xmlns="http://www.w3.org/2000/svg" viewBox="0 0 178 198.83"><title>pattern</title>
<path fill-opacity="0.1" fill="#5F6695" d="M181.92,91a30.92,30.92,0,0,0-3.51-12.66,11.5,11.5,0,0,0,5.73-3.12c4.17-4.17,7.25-13.75,2.35-18.65S172,54.78,167.84,59a11.39,11.39,0,0,0-3.12,5.72,31.12,31.12,0,0,0-12.67-3.51,24.24,24.24,0,0,0-17.39-7.07H129.4a3.51,3.51,0,0,0,0,7h5.26a18.07,18.07,0,0,1,7,1.38A26.63,26.63,0,0,0,131,69c-4.73,4.74-9.65,13.1-12.67,22.06-6.08.92-13.42,5.39-13.42,15.59a3.51,3.51,0,1,0,7,0c0-4.43,2.12-6.62,4.3-7.71-1.28,6.68-1.21,13.21,1.07,18.37a44.25,44.25,0,0,0-5.16,9.83,3,3,0,0,0,3.84,3.83,43.79,43.79,0,0,0,9.83-5.15,25.24,25.24,0,0,0,10.16,1.9,44.2,44.2,0,0,0,8.2-.83c-1.09,2.18-3.28,4.3-7.71,4.3a3.51,3.51,0,0,0,0,7c10.21,0,14.68-7.34,15.59-13.42,9-3,17.33-7.93,22.06-12.67a26.66,26.66,0,0,0,6.55-10.74,18.27,18.27,0,0,1,1.37,7v5.26a3.51,3.51,0,0,0,7,0v-5.26a24.26,24.26,0,0,0-7.07-17.39ZM124.1,96.17a63.3,63.3,0,0,1,5.75-13.88l5.7,5.69-2.2,8.19Zm26.88-10L157,92.26l-2.22,8.29-8.29,2.22-6.07-6.07,2.23-8.29Zm-4,32.8v-9.07l8.33-2.23,5.55,5.55A62.82,62.82,0,0,1,146.93,119Zm13.42-33.34-2.9-2.9V69.22a25.44,25.44,0,0,1,16.43,16.43ZM172.8,63.92a11.26,11.26,0,0,1,5.13-2.59,8.7,8.7,0,0,1,1.83-.21,2.66,2.66,0,0,1,1.77.45c.41.41.66,1.71.24,3.61a11.36,11.36,0,0,1-2.59,5.13,4.61,4.61,0,0,1-6.38,0,4.5,4.5,0,0,1,0-6.39Zm-22.36,4.21h0v11L139.49,82l-5.67-5.67A31,31,0,0,1,135.91,74,20.37,20.37,0,0,1,150.44,68.13Zm-24.8,49.33c-3-3-3.72-8.29-3-14.28H137l2.89,2.9v14.35C133.93,121.18,128.64,120.45,125.64,117.46Zm43.48-10.28a29,29,0,0,1-2.36,2.1l-5.53-5.54,3-11.08H175A20.32,20.32,0,0,1,169.12,107.18Z" transform="translate(-11 -0.59)"/>
<path fill-opacity="0.1" fill="#5F6695" d="M82.13,8.35A5.83,5.83,0,1,1,88,14.18,5.83,5.83,0,0,1,82.13,8.35ZM69.48,75.92a7.23,7.23,0,0,1,1.25,6.78c-5.64,17.19-18.3,21.55-26.3,21.55H39.22c-8.64,0-22.23-4.36-27.86-21.56a7.23,7.23,0,0,1,1.24-6.78A7.32,7.32,0,0,1,19,73.18c9.14.87,15.15,4,19.13,7.9l0-8.49a15.52,15.52,0,0,1-11.64-15c0-7.4,5.52-13,9.28-16.84a8.78,8.78,0,0,1,12.27,0c3.72,3.76,9.53,9.63,9.53,16.84a15.53,15.53,0,0,1-11.67,15l0,7.07c4.25-3.61,10-5.8,17.16-6.49a7.3,7.3,0,0,1,6.4,2.74ZM37.85,96.38C37,91.31,33.43,82.63,19,81,23.41,93.52,32.72,96,37.85,96.38Zm12-38.77c0-4-3.5-7.54-6.58-10.66,0,0-.74-1-1.32-1s-.94.62-.94.62c-3,3-6.7,6.81-6.7,11a7.77,7.77,0,0,0,15.54,0ZM63.1,81c-6.51.74-11.26,3-14.14,6.63-2.08,2.65-2.84,6.39-3.11,8.75,4.62-.43,12.93-3,17.25-15.37Zm63.7-56.21c0,4.37-4.78,6.73-9.27,6.73h-6.27v6.42c0,4.49-2.36,9.27-6.72,9.27-3.81,0-5.51-4-6.28-8.1a13.22,13.22,0,0,1-2.84.33c-9.16,0-15.09-3.74-15.09-9.54,0-6.69,6.91-13.77,13.45-13.77.71,0,1.39,0,2.06.1A21.92,21.92,0,0,1,95.72,14C95.72,7.5,102.8.59,109.49.59c5.8,0,9.54,5.92,9.54,15.08a14,14,0,0,1-.33,2.84c4.12.77,8.1,2.48,8.1,6.28Zm-24.5,3.43c-4.09-4-6-4.32-8.52-4.32-2.23,0-5.68,3.64-5.68,6,.35.57,3.19,1.77,7.32,1.77,1.49,0,4.26-1.48,4.39-1.54a11.9,11.9,0,0,0,2.49-1.92Zm9-12.54c0-4.12-1.2-7-1.83-7.34-2.29,0-5.94,3.47-5.94,5.7,0,2.46.34,4.43,4.32,8.52a11.87,11.87,0,0,0,1.92-2.49c.06-.13,1.53-2.9,1.53-4.39Z" transform="translate(-11 -0.59)"/>
<path fill-opacity="0.1" fill="#5F6695" d="M30.77,147.49a3.33,3.33,0,0,0-2.09,3.6l3.22,22.23a38,38,0,0,1,9.34-5.45,38.53,38.53,0,0,1,11.13-2.39c1.5-.1,2.77-.1,3.66-.09l1.08,0a2.17,2.17,0,0,1,.32,0h.13l-.17,1.92h0l.17-1.92a4.34,4.34,0,0,1,2.34.94l5.13-2a4.39,4.39,0,0,1,1.07-2.27l1.43,1.29h0l-1.43-1.29h0l0,0,.06-.07.21-.23c.19-.19.44-.45.77-.76.64-.63,1.58-1.48,2.75-2.42a35.17,35.17,0,0,1,20.35-8.15L77.55,132a3.36,3.36,0,0,0-4-1.23,3.29,3.29,0,0,0-1.07.68l-3.34,3.13a3.25,3.25,0,1,1-4.45-4.75l3.34-3.13a9.68,9.68,0,0,1,3.15-2,9.87,9.87,0,0,1,11.73,3.59l14.84,21.59a19.12,19.12,0,0,1,1.54,2.62,5.58,5.58,0,0,1,.35.69l.33.85,2,5.22.79,2a15.19,15.19,0,0,1-8.61,19.69l-5.61,2.2a15.2,15.2,0,0,1-19.36-7.84L68,172.56l-4.7,1.84.94,2.86a15.19,15.19,0,0,1-8.9,18.91l-5.6,2.19A15.19,15.19,0,0,1,30,189.75l-.79-2-2-5.22-.34-.85a4.79,4.79,0,0,1-.21-.74,19.65,19.65,0,0,1-.66-3L22.24,152a9.83,9.83,0,0,1,6.15-10.6,10,10,0,0,1,3.67-.68l4.57,0a3.26,3.26,0,0,1,0,6.52l-4.57,0A3.33,3.33,0,0,0,30.77,147.49ZM36,181.2l2.11,5.38a6.51,6.51,0,0,0,8.44,3.69l5.59-2.19A6.51,6.51,0,0,0,56,180L54,174.1l-1.07.06A29.54,29.54,0,0,0,44.4,176a28.87,28.87,0,0,0-7.47,4.45c-.34.28-.65.53-.93.79Zm58.71-16.78L92.61,159l-1.21.05a29.09,29.09,0,0,0-8.51,1.8,29.41,29.41,0,0,0-7.51,4.47c-.31.24-.58.48-.83.69l2.57,5.64a6.52,6.52,0,0,0,8.3,3.35L91,172.85a6.52,6.52,0,0,0,3.69-8.44Z" transform="translate(-11 -0.59)"/></svg>